<svg xmlns="http://www.w3.org/2000/svg" viewBox="0 0 256 256" role="img" aria-labelledby="title desc">
  <title id="title">StartupConnect icon</title>
  <desc id="desc">Rounded gradient square with the letters S and C connected by orbit lines.</desc>
  <defs>
    <linearGradient id="grad" x1="0%" y1="0%" x2="100%" y2="100%">
      <stop offset="0%" stop-color="#0d4f8b" />
      <stop offset="55%" stop-color="#1f3b4d" />
      <stop offset="100%" stop-color="#102030" />
    </linearGradient>
    <linearGradient id="accent" x1="0%" y1="0%" x2="0%" y2="100%">
      <stop offset="0%" stop-color="#ffb580" />
      <stop offset="100%" stop-color="#ff8c5a" />
    </linearGradient>
  </defs>
  <rect x="12" y="12" width="232" height="232" rx="64" fill="url(#grad)" />
  <g fill="none" stroke="#fef9f5" stroke-width="10" opacity="0.5">
    <path d="M58 134c0-46 34-74 70-74 36 0 70 28 70 74" stroke-linecap="round" />
    <path d="M58 134c0 46 34 74 70 74 36 0 70-28 70-74" stroke-linecap="round" />
  </g>
  <circle cx="84" cy="84" r="18" fill="#fef9f5" opacity="0.55" />
  <circle cx="188" cy="172" r="14" fill="#fef9f5" opacity="0.45" />
  <path
    d="M92 174c18 16 56 16 74-2 12-12 12-32-12-40l-20-6c-18-6-22-26-10-38 16-16 48-12 62 6"
    fill="none"
    stroke="url(#accent)"
    stroke-width="12"
    stroke-linecap="round"
    stroke-linejoin="round"
  />
  <text
    x="50%"
    y="54%"
    fill="#fefaf4"
    font-size="108"
    font-weight="700"
    font-family="'Inter', 'Segoe UI', sans-serif"
    text-anchor="middle"
    dominant-baseline="central"
  >SC</text>
</svg>
